HIERARCHY
ROOT Hip
{
    OFFSET 0.0 0.0 0.0
    CHANNELS 6 Xposition Yposition Zposition Zrotation Xrotation Yrotation
    JOINT RightHip
    {
        OFFSET -13.521650314331055 0.0 0.0
        CHANNELS 3 Zrotation Xrotation Yrotation
        JOINT RightKnee
        {
            OFFSET 0.0 0.0 -48.099876403808594
            CHANNELS 3 Zrotation Xrotation Yrotation
            JOINT RightAnkle
            {
                OFFSET 0.0 0.0 -45.817779541015625
                CHANNELS 3 Zrotation Xrotation Yrotation
                End Site
                {
                    OFFSET 0.0 -18.327112197875977 0.0
                }
            }
        }
    }
    JOINT LeftHip
    {
        OFFSET 13.521650314331055 0.0 0.0
        CHANNELS 3 Zrotation Xrotation Yrotation
        JOINT LeftKnee
        {
            OFFSET 0.0 0.0 -48.099876403808594
            CHANNELS 3 Zrotation Xrotation Yrotation
            JOINT LeftAnkle
            {
                OFFSET 0.0 0.0 -45.817779541015625
                CHANNELS 3 Zrotation Xrotation Yrotation
                End Site
                {
                    OFFSET 0.0 -18.327112197875977 0.0
                }
            }
        }
    }
    JOINT Spine
    {
        OFFSET 0.0 0.0 24.278772354125977
        CHANNELS 3 Zrotation Xrotation Yrotation
        JOINT Thorax
        {
            OFFSET 0.0 0.0 24.261747360229492
            CHANNELS 3 Zrotation Xrotation Yrotation
            JOINT Neck
            {
                OFFSET 0.0 0.0 11.935837745666504
                CHANNELS 3 Zrotation Xrotation Yrotation
                End Site
                {
                    OFFSET 0.0 0.0 4.7743353843688965
                }
            }
            JOINT LeftShoulder
            {
                OFFSET 15.132634162902832 0.0 0.0
                CHANNELS 3 Zrotation Xrotation Yrotation
                JOINT LeftElbow
                {
                    OFFSET 27.791358947753906 0.0 0.0
                    CHANNELS 3 Zrotation Xrotation Yrotation
                    JOINT LeftWrist
                    {
                        OFFSET 23.395803451538086 0.0 0.0
                        CHANNELS 3 Zrotation Xrotation Yrotation
                        End Site
                        {
                            OFFSET 9.358321189880371 0.0 0.0
                        }
                    }
                }
            }
            JOINT RightShoulder
            {
                OFFSET -15.132634162902832 0.0 0.0
                CHANNELS 3 Zrotation Xrotation Yrotation
                JOINT RightElbow
                {
                    OFFSET -27.791358947753906 0.0 0.0
                    CHANNELS 3 Zrotation Xrotation Yrotation
                    JOINT RightWrist
                    {
                        OFFSET -23.395803451538086 0.0 0.0
                        CHANNELS 3 Zrotation Xrotation Yrotation
                        End Site
                        {
                            OFFSET -9.358321189880371 0.0 0.0
                        }
                    }
                }
            }
        }
    }
}
MOTION
Frames: 10
Frame Time: 0.03333333333333333
-125.24573435875539 350.228765710031 317.0746563367391 -81.76377189 -50.78343981 -87.98651509 -0.69080006 -20.89169449 2.51556475 2.47911255 24.8155887 -1.64637441 0.0 0.0 0.0 -1.55082858 -11.92069292 -4.02904188 -2.0543206 25.25488269 13.18885768 0.0 0.0 0.0 0.1078609 16.36039302 -3.64615312 -2.53250254 0.0 0.0 -15.3197227 -0.67835511 -0.33842045 -23.57191158 -8.04591904 55.78802907 -62.92749757 0.0 0.0 0.0 0.0 0.0 3.60051611 -19.93850958 -49.66381728 49.68278833 0.0 0.0 0.0 0.0 0.0
-146.9879580212529 411.1753505319243 372.0095399803846 -81.72664165 -50.7984194 -87.95997843 -0.69313861 -20.90163449 2.50754259 2.47913494 24.82329238 -1.65628155 0.0 0.0 0.0 -1.5528463 -11.93579209 -4.03294121 -2.05337489 25.26362415 13.18651477 0.0 0.0 0.0 0.10993561 16.35767447 -3.64338904 -2.53058366 0.0 0.0 -15.30629532 -0.6921967 -0.34513721 -23.54455795 -8.06066388 55.78855204 -62.91417427 0.0 0.0 0.0 0.0 0.0 3.57428048 -19.94932243 -49.66756272 49.68226747 0.0 0.0 0.0 0.0 0.0
-158.67955332466772 444.09327160183244 401.4488470197691 -81.67823836 -50.8179704 -87.92538422 -0.69621017 -20.91463493 2.49704552 2.47918458 24.83338905 -1.66932546 0.0 0.0 0.0 -1.55549287 -11.95556443 -4.0380845 -2.05213432 25.27505932 13.18340546 0.0 0.0 0.0 0.11266191 16.35412933 -3.63975928 -2.52805503 0.0 0.0 -15.28868931 -0.71033939 -0.35394567 -23.50863717 -8.07998942 55.78924539 -62.89674507 0.0 0.0 0.0 0.0 0.0 3.53989573 -19.96347354 -49.67248032 49.68164136 0.0 0.0 0.0 0.0 0.0
-165.425413037133 463.24133998926135 418.33120614819813 -81.62084266 -50.84118431 -87.88436239 -0.69988327 -20.93010707 2.48454549 2.47927123 24.84543411 -1.68496744 0.0 0.0 0.0 -1.55865301 -11.97912946 -4.0442648 -2.0506526 25.28867221 13.17964319 0.0 0.0 0.0 0.1159243 16.34992401 -3.63541927 -2.52501995 0.0 0.0 -15.26767489 -0.7319857 -0.36446146 -23.46568792 -8.10304539 55.79008334 -62.87599667 0.0 0.0 0.0 0.0 0.0 3.49887507 -19.98032799 -49.67835903 49.68097109 0.0 0.0 0.0 0.0 0.0
-169.78646630801296 475.77340447475166 429.1479414121921 -81.5557764 -50.86753661 -87.83785801 -0.70408473 -20.94771422 2.47031141 2.47940338 24.85917668 -1.70291261 0.0 0.0 0.0 -1.562262 -12.00598774 -4.05137043 -2.04895981 25.30416815 13.17528578 0.0 0.0 0.0 0.11965848 16.3451554 -3.63045544 -2.52153465 0.0 0.0 -15.24368516 -0.75668601 -0.37646845 -23.41656713 -8.12935254 55.79105268 -62.85237819 0.0 0.0 0.0 0.0 0.0 3.45207166 -19.99952424 -49.68508137 49.68029997 0.0 0.0 0.0 0.0 0.0
-172.67737617124953 484.2351572558145 436.2262321013594 -81.48525877 -50.89614213 -87.78745707 -0.70868687 -20.96688273 2.45480308 2.47959072 24.87418372 -1.72263745 0.0 0.0 0.0 -1.56620767 -12.03528163 -4.0592005 -2.04710862 25.32104383 13.17044319 0.0 0.0 0.0 0.12375194 16.33998618 -3.62501911 -2.51769924 0.0 0.0 -15.21746958 -0.78366377 -0.38959242 -23.36277195 -8.15808303 55.79212845 -62.82665638 0.0 0.0 0.0 0.0 0.0 3.40095832 -20.02044327 -49.69244188 49.67968873 0.0 0.0 0.0 0.0 0.0
-174.49220993525455 489.71738478384077 440.57435841351054 -81.41145327 -50.92613625 -87.73470587 -0.71356386 -20.98705023 2.43847077 2.47984205 24.89003001 -1.74362545 0.0 0.0 0.0 -1.57037957 -12.06617027 -4.06755632 -2.0451504 25.33880638 13.16522509 0.0 0.0 0.0 0.12809397 16.33457514 -3.61925895 -2.51361247 0.0 0.0 -15.18976402 -0.81215707 -0.40346589 -23.30577451 -8.18842436 55.79328597 -62.79958238 0.0 0.0 0.0 0.0 0.0 3.34698053 -20.04247852 -49.70023836 49.67919418 0.0 0.0 0.0 0.0 0.0
-175.72990674745205 493.61275265304573 443.4589595246346 -81.33530253 -50.95714128 -87.68027863 -0.71866203 -21.00797189 2.42150978 2.48016249 24.90653218 -1.76565895 0.0 0.0 0.0 -1.57473037 -12.0982898 -4.07635502 -2.04310699 25.3572416 13.1596752 0.0 0.0 0.0 0.13263754 16.32899231 -3.61323825 -2.50931604 0.0 0.0 -15.16088465 -0.84183816 -0.4179312 -23.24620266 -8.22002696 55.79451551 -62.77148283 0.0 0.0 0.0 0.0 0.0 3.29075993 -20.06536693 -49.70838448 49.67884561 0.0 0.0 0.0 0.0 0.0
-176.6289541564704 496.5856571705507 445.48703242928445 -81.25760611 -50.98883565 -87.6247475 -0.72393567 -21.02943855 2.40408682 2.48055617 24.92353333 -1.78855206 0.0 0.0 0.0 -1.57921986 -12.13132965 -4.08552589 -2.04099734 25.37616624 13.15383061 0.0 0.0 0.0 0.13734256 16.32329727 -3.60701105 -2.50484529 0.0 0.0 -15.13110107 -0.87242732 -0.43285383 -23.18459213 -8.25259227 55.79580863 -62.74263668 0.0 0.0 0.0 0.0 0.0 3.23282666 -20.08888376 -49.71680666 49.67866808 0.0 0.0 0.0 0.0 0.0
-177.29568139986367 498.9309448001284 446.9307692632462 -81.17901801 -51.02095548 -87.5685806 -0.72934705 -21.05127811 2.38633849 2.48102669 24.94090457 -1.81215283 0.0 0.0 0.0 -1.58381478 -12.16503483 -4.09501103 -2.03883686 25.39542964 13.14772146 0.0 0.0 0.0 0.14217604 16.317539 -3.60062121 -2.50022897 0.0 0.0 -15.10063406 -0.90369516 -0.44812341 -23.12138149 -8.28587535 55.79715882 -62.71327332 0.0 0.0 0.0 0.0 0.0 3.17361542 -20.1128443 -49.72544437 49.67868264 0.0 0.0 0.0 0.0 0.0
